<svg width="5160" height="1482" viewBox="0 0 5160 1482" fill="none" xmlns="http://www.w3.org/2000/svg">
<path d="M962.5 1443.01L28 729.495C28 729.495 529.5 17.0081 894 20.0095C1258.5 23.011 1776 626.507 1776 626.507L962.5 1443.01Z" stroke="#F76527" stroke-width="40"/>
<path d="M643.435 102.441C634.385 108.662 427.961 251.072 345.5 354.01L365.25 331.896C365.479 331.639 365.63 331.484 365.908 331.28C374.612 324.917 563.076 188.195 709.476 174.182C858.658 159.902 977.865 209.682 978.992 210.154C979.027 210.169 978.973 210.147 979.008 210.161C980.147 210.61 1104.78 259.887 1192.52 331.51C1280.66 403.462 1325.91 476.01 1340 531.51C1354.09 587.01 1365 564.01 1359.5 662.51C1354.13 758.743 1256.17 838.969 1251.66 842.61C1251.52 842.727 1251.42 842.791 1251.26 842.89C1116.77 927.543 1029.82 965.447 891.071 952.805C885.878 952.332 883.257 959.186 887.539 962.161L1211.99 1187.62C1213.98 1189 1216.69 1188.74 1218.4 1187.03C1308.48 1096.74 1372.16 1032.82 1453.96 950.668L1536.65 869.856C1536.88 869.625 1537.09 869.373 1537.28 869.101C1573.05 816.774 1610.93 764.673 1610.93 635.51C1610.93 512.197 1560.67 409.737 1555.87 400.23C1555.6 399.703 1555.34 399.364 1554.9 398.968C1544.79 389.787 1408.3 266.063 1313.5 190.51L1215.42 128.01C1176.04 105.599 1122.7 81.7305 1068.04 56.2631C1067.68 56.095 1067.3 55.9703 1066.91 55.8922L937.252 29.9272C936.754 29.8274 936.301 29.6627 935.848 29.4319C899.342 10.834 760.221 54.6728 756.094 55.98C755.963 56.0214 755.936 56.0359 755.809 56.0882L644.23 102.029C643.906 102.162 643.724 102.242 643.435 102.441Z" stroke="#F66527" stroke-width="40"/>
<path d="M345.5 351.01L249 458.01L232.5 476.01L193 595.01C193 595.01 181.5 707.01 209 780.51C236.5 854.01 283 922.01 283 922.01L958.999 1441.51L1207 1194.01L645.5 780.51C645.5 780.51 590 737.061 541 679.01C492 620.959 492 599.51 492 565.51C492 531.51 516.5 491.51 516.5 491.51L562.5 415.01" stroke="#F66527" stroke-width="40"/>
<path d="M2999.29 910.824V1006.01H2943.62V735.854H3049.01C3069.3 735.854 3087.11 739.564 3102.45 746.986C3117.91 754.408 3129.79 764.984 3138.07 778.715C3146.36 792.322 3150.51 807.846 3150.51 825.287C3150.51 851.758 3141.41 872.663 3123.23 888.002C3105.17 903.217 3080.12 910.824 3048.08 910.824H2999.29ZM2999.29 865.736H3049.01C3063.73 865.736 3074.93 862.273 3082.6 855.346C3090.39 848.419 3094.29 838.523 3094.29 825.658C3094.29 812.423 3090.39 801.723 3082.6 793.559C3074.8 785.395 3064.04 781.189 3050.31 780.941H2999.29V865.736ZM3312.21 950.346H3214.61L3196.05 1006.01H3136.86L3237.43 735.854H3289.01L3390.14 1006.01H3330.95L3312.21 950.346ZM3229.64 905.258H3297.18L3263.22 804.135L3229.64 905.258ZM3484.48 857.572L3540.7 735.854H3601.56L3512.87 908.041V1006.01H3456.28V908.041L3367.59 735.854H3428.63L3484.48 857.572ZM3846.39 877.055C3846.39 903.65 3841.69 926.967 3832.29 947.006C3822.89 967.045 3809.4 982.507 3791.84 993.393C3774.4 1004.28 3754.36 1009.72 3731.72 1009.72C3709.33 1009.72 3689.35 1004.34 3671.79 993.578C3654.22 982.816 3640.62 967.478 3630.97 947.562C3621.32 927.523 3616.43 904.516 3616.31 878.539V865.18C3616.31 838.585 3621.07 815.206 3630.6 795.043C3640.25 774.757 3653.79 759.232 3671.23 748.471C3688.8 737.585 3708.84 732.143 3731.35 732.143C3753.86 732.143 3773.84 737.585 3791.28 748.471C3808.85 759.232 3822.39 774.757 3831.92 795.043C3841.56 815.206 3846.39 838.523 3846.39 864.994V877.055ZM3789.98 864.809C3789.98 836.482 3784.91 814.958 3774.77 800.238C3764.62 785.518 3750.15 778.158 3731.35 778.158C3712.67 778.158 3698.26 785.456 3688.12 800.053C3677.97 814.525 3672.84 835.801 3672.72 863.881V877.055C3672.72 904.639 3677.79 926.039 3687.93 941.254C3698.07 956.469 3712.67 964.076 3731.72 964.076C3750.4 964.076 3764.75 956.778 3774.77 942.182C3784.79 927.462 3789.86 906.062 3789.98 877.982V864.809ZM4101.05 928.08L4137.41 735.854H4192.89L4132.96 1006.01H4076.93L4032.95 825.287L3988.98 1006.01H3932.94L3873.01 735.854H3928.49L3965.04 927.709L4009.57 735.854H4056.7L4101.05 928.08ZM4446.62 1006.01H4390.96L4282.6 828.256V1006.01H4226.94V735.854H4282.6L4391.15 913.979V735.854H4446.62V1006.01ZM4661.58 888.93H4554.7V961.293H4680.13V1006.01H4499.04V735.854H4679.76V780.941H4554.7V845.326H4661.58V888.93ZM4816.6 907.113H4772.25V1006.01H4716.59V735.854H4816.97C4848.88 735.854 4873.5 742.966 4890.82 757.191C4908.13 771.417 4916.79 791.518 4916.79 817.494C4916.79 835.925 4912.77 851.326 4904.73 863.695C4896.82 875.941 4884.76 885.714 4868.55 893.012L4927 1003.41V1006.01H4867.25L4816.6 907.113ZM4772.25 862.025H4817.15C4831.13 862.025 4841.96 858.5 4849.63 851.449C4857.29 844.275 4861.13 834.441 4861.13 821.947C4861.13 809.206 4857.48 799.187 4850.18 791.889C4843.01 784.59 4831.94 780.941 4816.97 780.941H4772.25V862.025ZM5103.17 935.131C5103.17 924.617 5099.46 916.576 5092.04 911.01C5084.62 905.32 5071.26 899.382 5051.96 893.197C5032.66 886.889 5017.39 880.704 5006.13 874.643C4975.45 858.067 4960.11 835.74 4960.11 807.66C4960.11 793.064 4964.2 780.076 4972.36 768.695C4980.65 757.191 4992.46 748.223 5007.8 741.791C5023.26 735.359 5040.58 732.143 5059.75 732.143C5079.05 732.143 5096.24 735.668 5111.34 742.719C5126.43 749.646 5138.12 759.48 5146.4 772.221C5154.82 784.962 5159.02 799.434 5159.02 815.639H5103.36C5103.36 803.269 5099.46 793.682 5091.67 786.879C5083.87 779.952 5072.93 776.488 5058.83 776.488C5045.22 776.488 5034.64 779.395 5027.1 785.209C5019.55 790.899 5015.78 798.445 5015.78 807.846C5015.78 816.628 5020.17 823.988 5028.95 829.926C5037.86 835.863 5050.91 841.43 5068.1 846.625C5099.77 856.15 5122.84 867.963 5137.31 882.064C5151.78 896.166 5159.02 913.731 5159.02 934.76C5159.02 958.139 5150.18 976.508 5132.49 989.867C5114.8 1003.1 5090.99 1009.72 5061.05 1009.72C5040.27 1009.72 5021.35 1005.95 5004.28 998.402C4987.2 990.733 4974.15 980.281 4965.12 967.045C4956.22 953.809 4951.77 938.471 4951.77 921.029H5007.61C5007.61 950.84 5025.43 965.746 5061.05 965.746C5074.29 965.746 5084.62 963.087 5092.04 957.768C5099.46 952.325 5103.17 944.779 5103.17 935.131Z" fill="#F66527"/>
<path d="M2303 56.5098H2274V1480.51H2303V56.5098Z" fill="#F66527" stroke="#F66527"/>
</svg>
